<svg width="451" height="452" viewBox="0 0 451 452" fill="none" xmlns="http://www.w3.org/2000/svg">
<path d="M107.5 82C119 64.5 112 45.5 107.5 31C103.9 19.4 94.6667 15.5 90.5 15C88.3333 12 82.2 5.20001 75 2.00001C67.8 -1.19999 56.6667 9.33334 52 15L33 19C31.5 21.5 27.6 32.1 24 54.5C22.0716 66.4988 28.1869 77.8854 36.2286 87M107.5 82C98.3 96 86.3333 99.8333 81.5 100V110.5H99L119 129.333M107.5 82C109 74.8333 111.1 59.3 107.5 54.5C103.9 49.7 72.6667 42.8333 57.5 40C53.3333 46.5 43.8 59.7 39 60.5C33 61.5 42.3192 48.5 33 54.5C25.5446 59.3 32.046 78.1667 36.2286 87M190 124.5L159 167L119 129.333M190 124.5L201 104.5L205.5 115L201 124.5M190 124.5H201M201 124.5L163 195M163 195H150.5M163 195L176 200.5H150.5M150.5 195L119 158.5V129.333M150.5 195L119 184.5L90.5 176L46 124.5C45 121.333 41 116.9 33 124.5M150.5 195V200.5M150.5 200.5H99M24 144L81.5 200.5H99M24 144C23.6667 140.667 25 132.1 33 124.5M24 144V232M33 124.5L57.5 110.5V104.5C51.6183 101.095 43.1996 94.9011 36.2286 87M24 232H119V214.5M24 232C22 238.167 21 254 33 268M119 214.5H99V200.5M119 214.5H150.5L143 239M143 239H119M143 239L159 244.647M143 295H166.5L163 400.5C165.667 404.833 170.1 416.9 166.5 430.5C162.9 444.1 168 449.833 171 451L218.5 432.5L210 423L194 432.5C192.667 429.833 190.8 419.7 194 400.5C198 376.5 205.5 294.5 205.5 281C205.5 270.2 197.833 260.5 194 257L159 244.647M143 295L119 257M143 295C153.167 301.333 169.7 319.8 154.5 343C139.3 366.2 99.5 406 81.5 423V438.5H99L94.5 447L46 438.5C46.1667 436.167 47.6 429.8 52 423C55.5065 417.581 80.6279 378.141 100.134 347.5M33 268C45 282 57.6667 285.5 62.5 285.5L79.9146 299.5M33 268L11.5 278C8.49999 279.833 4.79999 284.6 14 289C20.0066 291.873 32.734 294.76 44 296.882M159 244.647L166.5 214.5H373L437 438.5L450 430.5L388.5 214.5H441.5V200.5H400M348 200.5C349.667 202.833 347.3 207.3 324.5 206.5C308.943 205.954 266.898 205.998 230 206.187M348 200.5L354 189V137.5C353.333 133.167 351.2 123.1 348 117.5C344.8 111.9 340.333 110.5 338.5 110.5H230C229 112 226.1 116 222.5 120C218.9 124 221 173.667 222.5 198M348 200.5H370.5M222.5 198C213 197.833 192.2 197.6 185 198C177.8 198.4 182 203.833 185 206.5C196.755 206.394 212.819 206.275 230 206.187M222.5 198L230 206.187M370.5 200.5V167H379.5M370.5 200.5H400M400 173V167H388.5M400 173H403.5C405.167 174 408.5 177.7 408.5 184.5C408.5 191.3 402.833 188.833 400 186.75M400 173V179.875M400 200.5V186.75M400 186.75V184.5M400 179.875L401.5 176C402.667 175.75 405.1 176.175 405.5 179.875C405.9 183.575 404.333 184.5 403.5 184.5H400M400 179.875V184.5M79.9146 299.5H59.5C57.7798 299.247 55.7455 298.93 53.5 298.56M79.9146 299.5L89 306.804M79.9146 299.5L88.0808 317.289M44 296.882L1.5 409.5L9 412.5L40.635 331.5M44 296.882C47.3705 297.516 50.6102 298.083 53.5 298.56M53.5 298.56L49.1179 309.78M44.7358 321L40.635 331.5M44.7358 321L51.5 318.831M44.7358 321L46.1852 317.289M89 306.804L96.5 312.833M89 306.804L51.5 318.831M49.1179 309.78L82 319.2M49.1179 309.78L46.1852 317.289M100.5 324.5L106.181 338M100.5 324.5L96.5 312.833M100.5 324.5L89 321.205M106.181 338C108.836 333.829 111.305 329.95 113.5 326.5L96.5 312.833M106.181 338C104.252 341.03 102.225 344.215 100.134 347.5M89 317L88.0808 317.289M82 319.2L88.0808 317.289M82 319.2L89 321.205M82 319.2L66 323.5M88.0808 317.289L89 321.205M89 321.205L91.545 331.212M66 323.5L40.635 331.5M66 323.5L91.545 331.212M66 323.5L51.5 318.831M100.134 347.5L92.5 331.5L91.545 331.212M51.5 318.831L46.1852 317.289M388.5 167L386.5 164L393 162.5L398 161V157.5L401.5 155L399 148.5C394 146.833 383.2 143.5 380 143.5C376.8 143.5 378 146.833 379 148.5L380 153L378 155L373 157.5L375 161L380 162.5C379 163 377.2 164 378 164C378.8 164 383.333 165 385.5 165.5L379.5 167M388.5 167H379.5M293 153.5H296.5L298.5 156V159L296.5 160.5L294 163.5L292 160.5L290.5 158L292 155L293 153.5Z" stroke="black"/>
</svg>
